<svg width="102" height="21" viewBox="0 0 102 21" fill="none" xmlns="http://www.w3.org/2000/svg">
<g clip-path="url(#clip0_5_7377)">
<rect width="19.25" height="20.5" fill="#00B67A"/>
<path d="M9.05859 4.60156C9.29297 4.13281 9.95703 4.15234 10.1719 4.60156L11.4609 7.19922L14.3125 7.60938C14.8203 7.6875 15.0156 8.3125 14.6445 8.68359L12.5938 10.6953L13.082 13.5273C13.1602 14.0352 12.6133 14.4258 12.1641 14.1914L9.625 12.8438L7.06641 14.1914C6.61719 14.4258 6.07031 14.0352 6.14844 13.5273L6.63672 10.6953L4.58594 8.68359C4.21484 8.3125 4.41016 7.6875 4.91797 7.60938L7.78906 7.19922L9.05859 4.60156Z" fill="white"/>
<rect width="19.25" height="20.5" transform="translate(20.25)" fill="#00B67A"/>
<path d="M29.3086 4.60156C29.543 4.13281 30.207 4.15234 30.4219 4.60156L31.7109 7.19922L34.5625 7.60938C35.0703 7.6875 35.2656 8.3125 34.8945 8.68359L32.8438 10.6953L33.332 13.5273C33.4102 14.0352 32.8633 14.4258 32.4141 14.1914L29.875 12.8438L27.3164 14.1914C26.8672 14.4258 26.3203 14.0352 26.3984 13.5273L26.8867 10.6953L24.8359 8.68359C24.4648 8.3125 24.6602 7.6875 25.168 7.60938L28.0391 7.19922L29.3086 4.60156Z" fill="white"/>
<rect width="19.25" height="20.5" transform="translate(40.5)" fill="#00B67A"/>
<path d="M49.5586 4.60156C49.793 4.13281 50.457 4.15234 50.6719 4.60156L51.9609 7.19922L54.8125 7.60938C55.3203 7.6875 55.5156 8.3125 55.1445 8.68359L53.0938 10.6953L53.582 13.5273C53.6602 14.0352 53.1133 14.4258 52.6641 14.1914L50.125 12.8438L47.5664 14.1914C47.1172 14.4258 46.5703 14.0352 46.6484 13.5273L47.1367 10.6953L45.0859 8.68359C44.7148 8.3125 44.9102 7.6875 45.418 7.60938L48.2891 7.19922L49.5586 4.60156Z" fill="white"/>
<rect width="19.25" height="20.5" transform="translate(60.75)" fill="#00B67A"/>
<path d="M69.8086 4.60156C70.043 4.13281 70.707 4.15234 70.9219 4.60156L72.2109 7.19922L75.0625 7.60938C75.5703 7.6875 75.7656 8.3125 75.3945 8.68359L73.3438 10.6953L73.832 13.5273C73.9102 14.0352 73.3633 14.4258 72.9141 14.1914L70.375 12.8438L67.8164 14.1914C67.3672 14.4258 66.8203 14.0352 66.8984 13.5273L67.3867 10.6953L65.3359 8.68359C64.9648 8.3125 65.1602 7.6875 65.668 7.60938L68.5391 7.19922L69.8086 4.60156Z" fill="white"/>
<rect width="19.25" height="20.5" transform="translate(81)" fill="#00B67A"/>
<path d="M90.0586 4.60156C90.293 4.13281 90.957 4.15234 91.1719 4.60156L92.4609 7.19922L95.3125 7.60938C95.8203 7.6875 96.0156 8.3125 95.6445 8.68359L93.5938 10.6953L94.082 13.5273C94.1602 14.0352 93.6133 14.4258 93.1641 14.1914L90.625 12.8438L88.0664 14.1914C87.6172 14.4258 87.0703 14.0352 87.1484 13.5273L87.6367 10.6953L85.5859 8.68359C85.2148 8.3125 85.4102 7.6875 85.918 7.60938L88.7891 7.19922L90.0586 4.60156Z" fill="white"/>
</g>
<defs>
<clipPath id="clip0_5_7377">
<rect width="101.25" height="20.5" fill="white"/>
</clipPath>
</defs>
</svg>
