<svg width="12" height="12" viewBox="0 0 12 12" fill="none" xmlns="http://www.w3.org/2000/svg">
<g clip-path="url(#clip0_5_7029)">
<path d="M2.56055 6C2.56055 5.76 2.65388 5.56 2.84055 5.4L8.00055 0.240001C8.16055 0.0799999 8.35388 0 8.58055 0C8.80721 0 9.00721 0.0799999 9.18055 0.240001C9.35388 0.400001 9.44055 0.6 9.44055 0.84C9.44055 1.08 9.34721 1.28 9.16055 1.44L4.60055 6L9.16055 10.56C9.32055 10.72 9.40055 10.92 9.40055 11.16C9.40055 11.4 9.32055 11.6 9.16055 11.76C9.00055 11.92 8.80721 12 8.58055 12C8.35388 12 8.16055 11.92 8.00055 11.76L2.84055 6.6C2.65388 6.44 2.56055 6.24 2.56055 6Z" fill="#050B20"/>
</g>
<defs>
<clipPath id="clip0_5_7029">
<rect width="12" height="12" fill="white" transform="matrix(1 0 0 -1 0 12)"/>
</clipPath>
</defs>
</svg>
