<svg width="108" height="27" viewBox="0 0 108 27" fill="none" xmlns="http://www.w3.org/2000/svg">
<g clip-path="url(#clip0_2106_93)">
<g clip-path="url(#clip1_2106_93)">
<g clip-path="url(#clip2_2106_93)">
<path d="M7.21039 0.720428C11.2004 0.720428 12.9154 2.57543 12.9154 6.35543V7.23043C12.9154 9.75043 12.1454 11.3604 10.4304 12.1654C12.4954 12.9704 13.3004 14.8254 13.3004 17.4154V19.4104C13.3004 23.1904 11.3054 25.2204 7.45539 25.2204H1.40039V0.720428H7.21039ZM6.96539 14.1954H5.25039V21.7204H7.45539C8.75039 21.7204 9.45039 21.1254 9.45039 19.3054V17.1704C9.45039 14.8954 8.71539 14.1954 6.96539 14.1954ZM7.10539 4.22043H5.25039V10.6954H6.75539C8.19039 10.6954 9.06539 10.0654 9.06539 8.10543V6.74043C9.06539 4.99043 8.47039 4.22043 7.10539 4.22043ZM20.9042 6.35543V19.5854C20.9042 21.3354 21.6742 22.0004 22.8992 22.0004C24.1242 22.0004 24.8942 21.3354 24.8942 19.5854V6.35543C24.8942 4.60543 24.1242 3.94043 22.8992 3.94043C21.6742 3.94043 20.9042 4.60543 20.9042 6.35543ZM17.0542 19.3404V6.60043C17.0542 2.68043 19.1192 0.44043 22.8992 0.44043C26.6792 0.44043 28.7442 2.68043 28.7442 6.60043V19.3404C28.7442 23.2604 26.6792 25.5004 22.8992 25.5004C19.1192 25.5004 17.0542 23.2604 17.0542 19.3404ZM41.7584 0.720428H45.3284L41.3034 12.6204L45.6084 25.2204H41.5484L38.3984 15.5254L35.2134 25.2204H31.6084L35.9134 12.6204L31.8884 0.720428H35.8784L38.7834 9.75043L41.7584 0.720428ZM56.2848 16.0854H59.9248V19.3404C59.9248 23.2604 57.9648 25.5004 54.1848 25.5004C50.4048 25.5004 48.4448 23.2604 48.4448 19.3404V6.60043C48.4448 2.68043 50.4048 0.44043 54.1848 0.44043C57.9648 0.44043 59.9248 2.68043 59.9248 6.60043V8.98043H56.2848V6.35543C56.2848 4.60543 55.5148 3.94043 54.2898 3.94043C53.0648 3.94043 52.2948 4.60543 52.2948 6.35543V19.5854C52.2948 21.3354 53.0648 21.9654 54.2898 21.9654C55.5148 21.9654 56.2848 21.3354 56.2848 19.5854V16.0854ZM72.5508 0.720428L76.4708 25.2204H72.5858L71.9208 20.7754H67.1958L66.5308 25.2204H62.9958L66.9158 0.720428H72.5508ZM69.5408 5.06043L67.6858 17.4504H71.3958L69.5408 5.06043ZM91.9837 25.2204H88.0637C87.8537 24.5904 87.7137 24.2054 87.7137 22.2104V18.3604C87.7137 16.0854 86.9437 15.2454 85.1937 15.2454H83.8637V25.2204H80.0137V0.720428H85.8237C89.8137 0.720428 91.5287 2.57543 91.5287 6.35543V8.28043C91.5287 10.8004 90.7237 12.4454 89.0087 13.2504C90.9337 14.0554 91.5637 15.9104 91.5637 18.4654V22.2454C91.5637 23.4354 91.5987 24.3104 91.9837 25.2204ZM85.7187 4.22043H83.8637V11.7454H85.3687C86.8037 11.7454 87.6787 11.1154 87.6787 9.15543V6.74043C87.6787 4.99043 87.0837 4.22043 85.7187 4.22043ZM95.3557 6.60043C95.3557 2.68043 97.2807 0.44043 101.025 0.44043C104.77 0.44043 106.695 2.68043 106.695 6.60043V7.37043H103.055V6.35543C103.055 4.60543 102.355 3.94043 101.13 3.94043C99.9057 3.94043 99.2057 4.60543 99.2057 6.35543C99.2057 11.3954 106.73 12.3404 106.73 19.3404C106.73 23.2604 104.77 25.5004 100.99 25.5004C97.2107 25.5004 95.2507 23.2604 95.2507 19.3404V17.8354H98.8907V19.5854C98.8907 21.3354 99.6607 21.9654 100.885 21.9654C102.11 21.9654 102.88 21.3354 102.88 19.5854C102.88 14.5454 95.3557 13.6004 95.3557 6.60043Z" fill="#050B20"/>
</g>
</g>
</g>
<defs>
<clipPath id="clip0_2106_93">
<rect width="108" height="26" fill="white" transform="translate(0 0.220215)"/>
</clipPath>
<clipPath id="clip1_2106_93">
<rect width="108" height="26" fill="white" transform="translate(0 0.220215)"/>
</clipPath>
<clipPath id="clip2_2106_93">
<rect width="108" height="26" fill="white" transform="translate(0 0.220215)"/>
</clipPath>
</defs>
</svg>
