<svg width="13" height="19" viewBox="0 0 13 19" fill="none" xmlns="http://www.w3.org/2000/svg">
<path d="M10.2825 1.09521H3.61589C2.35172 1.09521 1.32422 2.12271 1.32422 3.38688V15.0535C1.32422 16.3177 2.35172 17.3452 3.61589 17.3452H10.2825C11.5467 17.3452 12.5742 16.3177 12.5742 15.0535V3.38688C12.5742 2.12271 11.5467 1.09521 10.2825 1.09521ZM11.3242 15.0535C11.3242 15.6277 10.8567 16.0952 10.2825 16.0952H3.61589C3.04172 16.0952 2.57422 15.6277 2.57422 15.0535V3.38688C2.57422 2.81271 3.04172 2.34521 3.61589 2.34521H10.2825C10.8567 2.34521 11.3242 2.81271 11.3242 3.38688V15.0535ZM8.40755 4.22021C8.40755 4.56521 8.12755 4.84521 7.78255 4.84521H6.11589C5.77089 4.84521 5.49089 4.56521 5.49089 4.22021C5.49089 3.87521 5.77089 3.59521 6.11589 3.59521H7.78255C8.12755 3.59521 8.40755 3.87521 8.40755 4.22021Z" fill="#050B20"/>
</svg>
